<svg width="163" height="48" viewBox="0 0 163 48" fill="none" xmlns="http://www.w3.org/2000/svg">
<path d="M12.0642 32.9764V30.0304H3.33397V15.5752H0V32.9764H12.0642ZM20.4507 32.4282C21.1725 31.8802 21.7224 31.1609 22.1005 30.2702V32.9764H25.297V24.584C25.297 23.6935 25.0907 22.8713 24.6439 22.1863C24.1972 21.5012 23.544 20.9531 22.7192 20.5763C21.8943 20.1995 20.8975 19.994 19.7633 19.994C19.1445 19.994 18.5259 20.0625 17.9416 20.1653C17.3573 20.268 16.8074 20.4393 16.2918 20.6448C15.7763 20.8503 15.295 21.0901 14.8826 21.3642L14.9857 24.3443C15.7763 23.8304 16.5324 23.4536 17.2886 23.1796C18.0448 22.9056 18.8696 22.7685 19.7977 22.7685C20.5195 22.7685 21.1037 22.9399 21.5162 23.2824C21.9287 23.625 22.1348 24.0702 22.1348 24.6183V25.4746H19.2477C17.5292 25.4746 16.1886 25.8171 15.1919 26.5365C14.1952 27.2558 13.7141 28.2492 13.7141 29.5167C13.7141 30.236 13.8859 30.8526 14.1952 31.4349C14.5389 32.0171 14.9857 32.4625 15.6044 32.7708C16.223 33.1133 16.9448 33.2504 17.7354 33.2504C18.8352 33.2504 19.7289 32.9764 20.4507 32.4282ZM17.5636 30.2702C17.2198 29.9962 17.0136 29.6194 17.0136 29.1399C17.0136 28.5575 17.2542 28.1123 17.7697 27.804C18.251 27.4956 19.0071 27.3244 19.9695 27.3244H22.0318V27.804C22.0318 28.2149 21.9287 28.626 21.6881 29.0713C21.4474 29.5167 21.1037 29.8935 20.6225 30.2018C20.1414 30.51 19.5914 30.6812 18.9727 30.6812C18.3885 30.6812 17.9073 30.5443 17.5636 30.2702ZM35.4708 32.394C36.227 31.7431 36.7769 30.8526 37.1206 29.7564V32.9764H40.3514V20.3708H37.1206V26.2625C37.1206 27.1189 36.983 27.8724 36.7081 28.5233C36.4332 29.1741 36.0551 29.7222 35.5396 30.0647C35.024 30.4415 34.4397 30.6127 33.7866 30.6127C33.0648 30.6127 32.5149 30.4072 32.1024 29.9962C31.7243 29.5851 31.5182 28.9685 31.5182 28.1808V20.3708H28.2872V28.2492C28.2872 29.8935 28.6653 31.1266 29.4558 32.0171C30.2464 32.9078 31.2775 33.3532 32.6179 33.3532C33.7866 33.3532 34.7146 33.0448 35.4708 32.394ZM47.1225 27.0846C47.1225 26.2282 47.26 25.4746 47.535 24.8238C47.8099 24.173 48.188 23.625 48.6693 23.2824C49.1504 22.9056 49.7346 22.7343 50.3878 22.7343C51.1096 22.7343 51.6594 22.9399 52.0719 23.351C52.45 23.7619 52.6563 24.3786 52.6563 25.1663V33.0106H55.9215V25.1321C55.9215 23.4879 55.5434 22.2548 54.7529 21.3642C53.9623 20.4735 52.9312 20.0282 51.5907 20.0282C50.4564 20.0282 49.5285 20.3708 48.7723 20.9874C48.0505 21.6382 47.5006 22.5288 47.1225 23.625V20.405H43.8917V33.0106H47.1225V27.0846ZM66.8513 33.2504C67.2638 33.1818 67.6763 33.079 68.02 32.9764C68.3981 32.8736 68.7075 32.7365 69.0512 32.6338L69.0855 29.5851C68.57 29.8592 68.02 30.0304 67.4357 30.1675C66.8513 30.3044 66.2671 30.373 65.6828 30.373C64.8235 30.373 64.0673 30.2018 63.4831 29.8935C62.8987 29.5851 62.452 29.1399 62.1769 28.5575C61.902 28.0095 61.7646 27.3586 61.7646 26.6736C61.7646 25.9885 61.902 25.3719 62.1769 24.7895C62.452 24.2415 62.8987 23.7962 63.4831 23.4536C64.0673 23.1111 64.7891 22.9741 65.6141 22.9741C66.2671 22.9741 66.8513 23.0425 67.4357 23.1796C68.02 23.3167 68.5356 23.5222 69.0512 23.7619L69.0168 20.6106C68.6387 20.4735 68.295 20.3365 67.9512 20.268C67.6075 20.1653 67.2294 20.0967 66.7827 20.0625C66.3702 19.994 65.9234 19.9597 65.4423 19.9597C63.9986 19.9597 62.7613 20.268 61.6958 20.8503C60.6303 21.4327 59.8054 22.2548 59.221 23.2482C58.6368 24.2758 58.3618 25.4062 58.3618 26.7078C58.3618 27.9752 58.6711 29.1399 59.2554 30.1332C59.8398 31.1266 60.6647 31.9145 61.7302 32.4625C62.7957 33.0105 64.033 33.3189 65.4423 33.3189C65.9578 33.3532 66.439 33.3189 66.8513 33.2504ZM75.2036 32.9764V27.0846C75.2036 26.2282 75.341 25.4746 75.6159 24.8238C75.891 24.173 76.2691 23.625 76.7846 23.2824C77.3002 22.9056 77.8502 22.7343 78.5032 22.7343C79.2592 22.7343 79.8092 22.9399 80.1873 23.351C80.5654 23.7619 80.7716 24.3786 80.7716 25.1663V33.0106H84.0024V25.1321C84.0024 23.4879 83.6245 22.2548 82.8339 21.3642C82.0434 20.4735 81.0122 20.0282 79.6717 20.0282C78.5376 20.0282 77.5751 20.3708 76.8533 20.9874C76.0972 21.6382 75.5473 22.5288 75.2036 23.625V15.5752H72.007V32.9764H75.2036ZM94.4513 32.9764C96.3073 32.9764 97.8883 32.6338 99.1944 31.9145C100.501 31.1951 101.497 30.2018 102.185 28.9C102.872 27.5984 103.216 26.057 103.216 24.31C103.216 22.5631 102.872 21.0216 102.185 19.7199C101.497 18.4183 100.501 17.3907 99.1944 16.6713C97.8883 15.952 96.3073 15.6094 94.4513 15.6094H87.7489V33.0106H94.4513V32.9764ZM91.0829 30.0304V18.521H94.4169C96.101 18.521 97.4072 19.0349 98.3351 20.0282C99.2976 21.0559 99.7443 22.4603 99.7443 24.2758C99.7443 26.0913 99.2632 27.5298 98.3351 28.5233C97.3728 29.5167 96.0666 30.0304 94.4169 30.0304H91.0829ZM111.671 32.4282C112.393 31.8802 112.943 31.1609 113.321 30.2702V32.9764H116.517V24.584C116.517 23.6935 116.311 22.8713 115.864 22.1863C115.418 21.5012 114.764 20.9531 113.94 20.5763C113.115 20.1995 112.118 19.994 110.984 19.994C110.365 19.994 109.746 20.0625 109.162 20.1653C108.578 20.268 108.028 20.4393 107.512 20.6448C106.997 20.8503 106.515 21.0901 106.103 21.3642L106.206 24.3443C106.997 23.8304 107.753 23.4536 108.509 23.1796C109.265 22.9056 110.09 22.7685 111.018 22.7685C111.74 22.7685 112.324 22.9399 112.737 23.2824C113.149 23.625 113.355 24.0702 113.355 24.6183V25.4746H110.537C108.818 25.4746 107.478 25.8171 106.481 26.5365C105.484 27.2558 105.003 28.2492 105.003 29.5167C105.003 30.236 105.175 30.8526 105.484 31.4349C105.828 32.0171 106.275 32.4625 106.893 32.7708C107.512 33.1133 108.234 33.2504 109.024 33.2504C110.09 33.2504 110.949 32.9764 111.671 32.4282ZM108.784 30.2702C108.44 29.9962 108.234 29.6194 108.234 29.1399C108.234 28.5575 108.475 28.1123 108.99 27.804C109.471 27.4956 110.227 27.3244 111.19 27.3244H113.252V27.804C113.252 28.2149 113.149 28.626 112.908 29.0713C112.668 29.5167 112.324 29.8935 111.843 30.2018C111.362 30.51 110.846 30.647 110.227 30.647C109.643 30.6812 109.162 30.5443 108.784 30.2702ZM123.048 32.9764V27.5984C123.048 26.194 123.357 25.1321 123.941 24.4127C124.526 23.6935 125.351 23.3167 126.347 23.3167C126.829 23.3167 127.275 23.3851 127.688 23.5222V20.405C127.482 20.3365 127.275 20.3023 127.069 20.268C126.863 20.2338 126.622 20.2338 126.382 20.2338C125.591 20.2338 124.904 20.5078 124.354 21.0559C123.804 21.6039 123.357 22.3917 123.082 23.351V20.3365H119.851V32.9421H123.048V32.9764ZM132.981 32.9764V28.9L134.15 27.804L137.931 32.9764H141.78L136.384 25.6117L141.677 20.3708H137.622L133.016 24.8238V15.5752H129.819V32.9764H132.981ZM146.971 32.9764V15.5752H143.739V32.9764H146.971ZM151.919 37.6691C153.122 37.6691 154.085 37.4294 154.84 36.9498C155.597 36.4702 156.216 35.6139 156.731 34.4149L162.539 20.3708H159.206L155.804 29.1741L152.297 20.3708H148.963L154.154 32.9421L153.878 33.5929C153.706 34.004 153.501 34.3465 153.192 34.5177C152.916 34.7233 152.469 34.826 151.884 34.826H149.204V37.6691H151.919Z" fill="#171717"/>
</svg>
