<svg xmlns="http://www.w3.org/2000/svg" width="125" height="48" fill="none"><path fill="#171717" d="M.467 12.383h9c5.744 0 9.383 4.596 9.383 10.915 0 3.447-1.15 6.51-3.447 8.425-1.532 1.34-3.638 2.107-6.32 2.107H.468V12.383Zm8.33 17.713c4.117 0 5.648-2.49 5.648-6.702 0-4.213-1.819-7.181-5.553-7.181H4.775v13.979h4.022v-.096ZM19.52 26.17c0-4.596 3.255-8.138 8.043-8.138 4.787 0 8.042 3.543 8.042 8.138 0 4.596-3.255 8.139-8.042 8.139-4.788 0-8.043-3.639-8.043-8.139Zm11.872 0c0-2.968-1.436-5.074-3.925-5.074-2.49 0-3.926 2.01-3.926 5.074s1.34 4.979 3.926 4.979c2.585 0 3.925-2.01 3.925-4.979Zm4.979 0c0-4.596 2.968-8.138 7.66-8.138 4.02 0 6.415 2.298 6.989 5.649h-4.021c-.288-1.34-1.34-2.394-2.777-2.394-2.49 0-3.734 1.915-3.734 4.883 0 2.873 1.149 4.883 3.638 4.883 1.628 0 2.777-.861 3.064-2.585h4.021c-.287 3.255-2.776 5.84-6.893 5.84-4.883-.095-7.947-3.638-7.947-8.138Zm25.564 7.66v-1.82h-.096c-1.053 1.437-2.202 2.203-4.404 2.203-3.447 0-5.362-2.202-5.362-5.553V18.415h4.021v9.574c0 1.82.766 2.777 2.585 2.777 1.915 0 3.064-1.436 3.064-3.447v-8.904h4.117v15.32h-3.925v.095ZM85.68 12.479h4.117v3.83H85.68v-3.83Zm0 5.936h4.117v15.32H85.68v-15.32Zm5.744 15.798h4.021c.287.957 1.245 1.723 3.065 1.723 2.297 0 3.446-1.149 3.446-3.16v-1.723h-.096c-.861 1.053-2.106 1.82-4.02 1.82-3.448 0-6.799-2.681-6.799-7.373 0-4.596 2.777-7.468 6.606-7.468 1.916 0 3.352.766 4.213 2.01h.096v-1.627h3.926v14.17c0 2.202-.671 3.638-1.82 4.692C102.817 38.52 100.807 39 98.51 39c-4.022 0-6.607-1.723-7.086-4.787Zm10.819-8.809c0-2.202-1.245-4.117-3.637-4.117-2.107 0-3.448 1.628-3.448 4.213s1.34 4.117 3.448 4.117c2.584 0 3.637-1.915 3.637-4.213Zm9.479-4.883c1.149-1.627 2.585-2.49 4.595-2.49 3.16 0 5.266 2.395 5.266 5.746V33.83h-4.117v-9.383c0-1.628-.957-2.777-2.68-2.777-1.819 0-3.16 1.436-3.16 3.543v8.712h-3.925V18.606h4.021v1.915Zm-35.33.383c-3.16-.67-4.595-1.244-4.595-2.968 0-1.532 1.531-2.49 3.83-2.49 2.106 0 3.733.958 4.116 2.969h4.213C83.478 14.298 80.414 12 75.626 12c-4.787 0-8.234 2.202-8.234 6.415 0 4.5 3.543 5.457 7.373 6.319 3.255.766 5.266 1.149 5.266 3.255 0 2.011-1.915 2.777-4.118 2.777-3.063 0-4.5-1.053-4.787-3.638h-4.212c.191 4.5 3.446 7.085 9.287 7.085 4.787 0 8.33-2.394 8.33-6.798-.096-4.5-3.735-5.553-8.139-6.51Zm46.915.383c-.861 0-1.628-.766-1.628-1.627 0-.862.767-1.628 1.628-1.628.862 0 1.628.766 1.628 1.628 0 .861-.766 1.627-1.628 1.627Zm0-2.968c-.766 0-1.34.575-1.34 1.34 0 .767.574 1.341 1.34 1.341.766 0 1.34-.575 1.34-1.34 0-.766-.574-1.34-1.34-1.34Z"/><path fill="#171717" d="M122.734 18.798h.575c.191 0 .382 0 .478.096.096.096.192.192.192.383 0 .287-.192.383-.288.479l.384.67h-.384l-.286-.575h-.383v.575h-.288v-1.628Zm.288.288v.478h.287c.096 0 .287 0 .287-.287 0 0 0-.192-.096-.192h-.478Z"/></svg>