<svg xmlns="http://www.w3.org/2000/svg" width="112" height="48" fill="none"><path fill="#171717" fill-rule="evenodd" d="M111.294 30.563c-4.658 7.898-12.035 5.606-14.25 3.812-.944.64-2.597 2.042-4.801 1.88-4.696-.345-6.377-7.054-6.377-7.054.034.026-1.399.494-2.173.486-.01 1.967-1.71 6.668-6.301 6.607-5.151-.067-6.198-7.74-6.198-7.74s-.513.71-2.462 1.42c.098-1.512.026 6.09-6.147 6.202-4.881.089-6.199-7.741-6.199-7.741s-.846.88-2.487 1.184c.104-1.536-.066 6.583-6.24 6.557-4.173-.017-5.599-4.823-5.488-5.49.142-.85-1.41 5.61-5.463 5.509-1.673-.05-2.92-1.26-3.702-2.875-1.048 1.199-2.568 2.875-4.274 2.875-3.063 0-4.413-2.561-4.184-9.877.02-.868-.043-1.209-.906-1.339-.518-.086-1.048-.25-1.609-.336-.18.6-1.705 11.357-6.949 11.561-1.76.069-2.721-1.456-3.511-2.587-1.211 1.602-2.81 2.638-5.087 2.638C2.628 36.255 0 33.136 0 29.289s2.628-6.965 6.486-6.965c.682 0 .874.098 1.497.28C6.7 10.937 9.727 9.113 12.375 9.113c2.541 0 6.884 5.899.774 20.862 1.356 4.463 4.28 4.21 5.686-4.977.286-1.867-.479-4.388.71-4.74 2.175-.642 2.406 1.287 3.425 1.608 1.078.34 1.707.306 2.742.523 1.768.345 2.459 1.295 2.243 3.41-.259 2.678-.711 6.574.669 7.05.995.344 2.812-1.72 3.13-2.849.32-1.129.386-1.515.414-2.344.043-1.77.098-3.067.4-4.406.129-.518.276-.861.862-.885.482-.012 1.364-.157 1.752.145.518.389.453.783.394 1.822-.602 14.803 4.03 7.413 5.41 1.496-.491-6.691-.154-16.592 4.04-16.759 2.18-.086 3.144 1.661 3.25 2.965.3 3.683-1.38 9.783-3.59 13.886-1.262 8.37 5.522 10.026 6.607 3.344-1.775-.844-3.694-4.26-2.133-5.924.876-.934 4.522.408 4.582 3.335 1.788-.479 2.027-1.488 2.052-1.321-.492-6.691-.036-16.118 4.158-16.284 2.18-.087 3.144 1.66 3.25 2.964.3 3.683-1.38 9.783-3.59 13.886-1.263 8.37 5.522 10.026 6.606 3.344-1.314-.253-4.088-3.886-2.487-5.924.855-1.09 4.488 1.175 4.894 3.432 1.718-.486 1.952-1.464 1.976-1.3-.491-6.69-.035-16.118 4.158-16.284 2.18-.086 3.144 1.66 3.25 2.965.3 3.682-1.38 9.783-3.59 13.885-1.262 8.372 5.522 10.026 6.607 3.345-1.806-.301-4.373-4.137-2.307-6.1.825-.784 3.979 1.252 4.717 3.574 1.025-.04 1.664-.393 1.8-.43C83.6 18.574 84.819 9.149 89.33 9.07c2.438-.043 4.822 1.318 3.775 8.79-.998 7.13-4.588 10.123-4.58 10.169.21.854 2.051 8.002 6.69 4.23-.24-.543-.48-1.099-.615-1.772-.769-3.92.741-8.347 4.846-9.062 2.351-.41 4.567.735 4.917 3.316.576 4.224-3.238 7.282-4.688 7.946-.65-.37 5.888 3.824 9.768-4.579.225-.48.496-.44.848-.192.248.175 1.661 1.514 1.004 2.647ZM9.292 28.252a51.17 51.17 0 0 1-.746-2.454C7.757 25.11 7.194 25 6.181 25c-2.25 0-3.575 2.08-3.575 4.325 0 2.243 1.443 4.325 3.694 4.325 1.95 0 3.435-1.326 3.888-3.204-.317-.732-.632-1.404-.896-2.194Zm3.028-16.05c-1.582 0-2.118 3.772-2.014 6.99.092 2.846.887 5.35 1.3 6.473.104.14.085.05.178.199 2.746-6.017 1.607-13.663.536-13.663Zm32.931.118c-2.044-.235-2.03 8.28-1.777 10.19 1.062-1.698 2.906-9.733 1.777-10.19Zm14.926 0c-2.044-.235-2.03 8.28-1.777 10.19 1.062-1.698 2.906-9.733 1.777-10.19Zm14.807.118c-2.044-.234-2.03 8.28-1.777 10.19 1.062-1.698 2.906-9.732 1.777-10.19Zm14.57-.617c-3.184.64-2.442 11.258-1.959 13.12 3.752-5.152 3.829-13.313 1.96-13.12Zm11.936 13.27c-.162-.678-.972-1.04-1.53-.95-1.6.218-3.15 2.21-2.55 5.241.133.676.468 1.297.462 1.276 3.579-2.4 3.883-4.292 3.618-5.568Zm-67.433-5.07a2.31 2.31 0 1 1-.001-4.62 2.31 2.31 0 0 1 0 4.62Z" clip-rule="evenodd"/></svg>