<svg xmlns="http://www.w3.org/2000/svg" width="118" height="48" fill="none"><path fill="#171717" d="M61.744 17.081c-.974-.817-2.647-1.226-5.021-1.226H51.39v16.483h3.989v-5.176h1.79c2.16 0 3.756-.487 4.768-1.44 1.148-1.07 1.713-2.491 1.713-4.282 0-1.829-.643-3.288-1.907-4.359Zm-4.69 6.345H55.36v-3.854h1.519c1.848 0 2.763.643 2.763 1.946.02 1.265-.856 1.907-2.588 1.907Zm13.408-7.59h-4.145v16.483h8.971v-3.737h-4.826V15.836Zm12.98 0-6.539 16.483h4.476l.856-2.394h5.683l.778 2.394h4.535l-6.48-16.483h-3.31Zm-.058 10.762 1.712-5.644 1.693 5.644h-3.406Zm11.929 5.722h4.165V15.835h-4.165V32.32Zm20.297-13.39a7.114 7.114 0 0 0-1.985-1.907c-1.265-.797-2.977-1.187-5.137-1.187H103V32.32h6.402c2.316 0 4.184-.759 5.585-2.277 1.402-1.518 2.102-3.522 2.102-6.032.02-1.985-.486-3.678-1.479-5.08Zm-6.655 9.653h-1.771v-9.01h1.81c1.265 0 2.257.389 2.938 1.187s1.032 1.926 1.032 3.386c-.02 2.958-1.343 4.437-4.009 4.437ZM17.608 2 4.122 5.522.405 19.086l4.67 4.768-4.729 4.69L3.85 42.166l13.428 3.756 4.729-4.69L26.656 46l13.487-3.522 3.717-13.564-4.651-4.768 4.728-4.69-3.502-13.622-13.428-3.756-4.729 4.69L17.608 2ZM9.337 8.13l7.103-1.868 3.114 3.191-4.535 4.496L9.337 8.13Zm15.588 1.382 3.152-3.133 7.064 1.985-5.78 5.74c.02-.02-4.436-4.592-4.436-4.592ZM4.666 17.977l1.966-7.142 5.682 5.819-4.534 4.495-3.114-3.172Zm27.381-1.148 5.78-5.741 1.849 7.18-3.153 3.134c-.02 0-4.476-4.573-4.476-4.573Zm-14.362-.117 4.535-4.495 4.456 4.573-4.534 4.495-4.457-4.573Zm-7.239 7.181 4.534-4.495 4.457 4.573-4.534 4.495-4.457-4.573Zm14.362.117 4.534-4.496 4.457 4.574-4.535 4.495c0 .02-4.456-4.573-4.456-4.573Zm-20.22 5.72 3.153-3.133 4.457 4.573-5.76 5.741c-.02 0-1.85-7.18-1.85-7.18Zm12.98 1.48 4.535-4.496 4.456 4.573-4.534 4.495-4.456-4.573Zm14.362.116 4.535-4.496 3.113 3.192-1.946 7.142c-.02 0-5.702-5.838-5.702-5.838Zm-22.846 8.31 5.76-5.741 4.457 4.573-3.153 3.133-7.064-1.966Zm15.607-1.11 4.534-4.495 5.683 5.819-7.103 1.868-3.114-3.192Z"/></svg>