<svg width="480" height="480" viewBox="0 0 480 480" fill="none" xmlns="http://www.w3.org/2000/svg">
<rect width="480" height="480" rx="148" fill="#00A664"/>
<g clip-path="url(#clip0_176_527)">
<path d="M399.97 238.341C399.97 237.956 399.941 237.57 399.941 237.215C399.941 237.067 399.941 236.948 399.941 236.8C399.378 208.533 391.467 182.015 378.015 159.141C370.756 146.815 361.896 135.526 351.733 125.57C322.874 97.3926 283.437 80 240 80C196.563 80 157.126 97.3926 128.267 125.57C118.104 135.526 109.244 146.785 101.985 159.141C88.5333 182.015 80.6222 208.533 80.0593 236.8C80.0593 236.948 80.0593 237.067 80.0593 237.215C80.0593 237.6 80.0296 237.985 80.0296 238.341C80.0296 238.874 80 239.437 80 240C80 240.919 80 241.807 80.0296 242.726C80.5037 269.926 87.7333 295.467 100.207 317.778C100.77 318.815 101.363 319.852 101.985 320.859C104.385 324.948 106.993 328.948 109.748 332.8C115.289 340.533 121.481 347.793 128.267 354.43C157.126 382.607 196.563 400 240 400C283.437 400 322.874 382.607 351.733 354.43C361.896 344.474 370.756 333.215 378.015 320.859C378.459 320.119 378.874 319.378 379.289 318.637L363.852 309.837C357.896 320.356 350.667 330.015 342.341 338.667C334.548 346.756 325.778 353.926 316.267 360C294.222 374.074 268.03 382.222 240 382.222C211.941 382.222 185.778 374.074 163.733 360C154.222 353.926 145.452 346.756 137.659 338.667C133.215 334.044 129.067 329.156 125.274 323.97C121.778 319.2 118.548 314.193 115.674 308.978C115.644 308.919 115.615 308.889 115.585 308.83C104.237 288.415 97.7778 264.948 97.7778 240C97.7778 215.052 104.237 191.585 115.556 171.17C121.6 160.267 129.037 150.252 137.63 141.333C146.163 139.022 155.141 137.778 164.415 137.778C165.926 137.778 167.437 137.807 168.919 137.867C178.341 138.281 187.437 139.97 196.059 142.785C207.319 146.459 217.748 152.03 226.904 159.141C231.615 162.785 235.97 166.815 239.97 171.2C244.03 175.674 247.733 180.504 250.963 185.63C246.667 190.696 242.963 196.296 239.97 202.311C236.978 196.326 233.274 190.726 228.978 185.63C225.096 181.007 220.711 176.8 215.911 173.126C204.059 163.97 189.748 157.896 174.133 156.119C170.933 155.733 167.704 155.556 164.415 155.556C158.43 155.556 152.622 156.178 146.993 157.363C139.97 165.244 133.956 174.015 129.096 183.467C120.444 200.444 115.556 219.674 115.556 240C115.556 260.326 120.444 279.556 129.126 296.533C129.778 297.748 130.4 298.993 131.081 300.178C133.985 305.393 137.215 310.37 140.8 315.081C142.756 317.689 144.83 320.207 146.993 322.637C153.511 329.956 160.859 336.504 168.919 342.133C176.978 347.763 185.719 352.444 195.022 356.059C208.978 361.481 224.148 364.444 240 364.444C255.852 364.444 271.022 361.481 284.948 356.03C294.222 352.415 302.993 347.733 311.052 342.104C319.111 336.474 326.459 329.926 332.978 322.607C338.874 316 344.059 308.77 348.415 301.007L332.948 292.207C330.193 297.096 327.052 301.778 323.585 306.163C318.37 312.741 312.415 318.667 305.807 323.852C299.111 329.126 291.763 333.6 283.911 337.185C275.704 340.919 266.933 343.615 257.807 345.156C252 346.133 246.074 346.637 240 346.637C233.926 346.637 228 346.133 222.193 345.156C216.089 344.119 210.163 342.578 204.444 340.563V302.222H186.667V332.356C182.311 329.837 178.133 326.993 174.163 323.881C167.585 318.696 161.63 312.77 156.415 306.193C156.415 306.193 156.385 306.193 156.385 306.163C156.415 306.163 156.415 306.163 156.444 306.163L275.556 238.341L387.23 302.637C389.57 297.126 391.644 291.467 393.363 285.659C397.363 272.237 399.644 258.044 399.941 243.407C399.941 243.259 399.941 243.141 399.941 242.993C399.97 241.985 400 240.978 400 239.97C400 239.437 400 238.904 399.97 238.341ZM231.022 243.23L214.133 252.859L204.444 258.4V222.222H186.667V268.504L146.548 291.348C138.133 276.119 133.333 258.607 133.333 240C133.333 215.022 141.956 192 156.415 173.807C159.052 173.481 161.748 173.333 164.444 173.333C180.622 173.333 195.496 179.141 207.052 188.77C212.089 192.948 216.504 197.896 220.119 203.378C227.081 213.896 231.111 226.489 231.111 240C231.111 241.067 231.141 242.104 231.17 243.17L231.022 243.23ZM195.052 123.97C185.274 121.393 175.022 120 164.444 120C164.207 120 163.97 120 163.733 120C185.778 105.926 211.941 97.7778 240 97.7778C268.059 97.7778 294.222 105.926 316.267 120C316.03 120 315.793 120 315.556 120C304.978 120 294.726 121.363 284.948 123.97C271.022 118.519 255.852 115.556 240 115.556C224.148 115.556 208.978 118.519 195.052 123.97ZM240 146.844C234.459 142.341 228.504 138.311 222.193 134.844C228 133.867 233.926 133.363 240 133.363C246.074 133.363 252 133.867 257.807 134.844C251.496 138.311 245.541 142.311 240 146.844ZM345.096 258.193L284.207 222.933L275.556 217.867L249.274 232.83C250.43 222.015 254.163 212 259.881 203.348C263.496 197.867 267.911 192.919 272.948 188.741C284.504 179.111 299.378 173.304 315.556 173.304C318.281 173.304 320.948 173.481 323.585 173.778C338.044 192 346.667 215.022 346.667 240C346.667 246.193 346.133 252.296 345.096 258.193ZM382.222 241.156C382.133 253.393 380.474 265.274 377.452 276.622L372.859 274.015L361.393 267.467C363.407 258.637 364.444 249.422 364.444 240C364.444 219.674 359.556 200.444 350.874 183.467C346.015 174.015 340 165.244 332.978 157.363C327.348 156.178 321.541 155.556 315.556 155.556C312.267 155.556 309.007 155.733 305.837 156.119C290.222 157.926 275.911 163.97 264.059 173.126C260.741 168.207 257.067 163.526 253.067 159.141C262.252 152.03 272.652 146.43 283.911 142.785C292.504 139.97 301.6 138.281 311.052 137.867C312.533 137.807 314.044 137.778 315.556 137.778C324.83 137.778 333.807 139.022 342.341 141.333C350.933 150.252 358.37 160.267 364.415 171.17C375.733 191.585 382.193 215.052 382.193 240C382.222 240.385 382.222 240.77 382.222 241.156Z" fill="#FEFFFF"/>
<path d="M271.111 266.904H253.333V284.681H271.111V266.904Z" fill="#FEFFFF"/>
<path d="M297.778 266.904H280V284.681H297.778V266.904Z" fill="#FEFFFF"/>
<path d="M297.778 266.904H280V284.681H297.778V266.904Z" fill="#FEFFFF"/>
<path d="M271.111 293.57H253.333V311.348H271.111V293.57Z" fill="#FEFFFF"/>
<path d="M297.778 293.57H280V311.348H297.778V293.57Z" fill="#FEFFFF"/>
</g>
<defs>
<clipPath id="clip0_176_527">
<rect width="320" height="320" fill="white" transform="translate(80 80)"/>
</clipPath>
</defs>
</svg>
